<svg width="192" height="192" viewBox="0 0 192 192" fill="none" xmlns="http://www.w3.org/2000/svg">
<g clip-path="url(#clip0_405_13)">
<path d="M152 0H40C17.9086 0 0 17.9086 0 40V152C0 174.091 17.9086 192 40 192H152C174.091 192 192 174.091 192 152V40C192 17.9086 174.091 0 152 0Z" fill="url(#paint0_radial_405_13)"/>
<path d="M92.0121 93.4559C100.413 91.5441 107.569 93.7111 111.045 97.5736C111.913 98.57 112.369 99.5076 112.607 100.556C113.308 103.641 111.639 106.255 108.499 106.97C106.087 107.519 104.044 107.005 102.076 105.34C99.4983 103.141 97.2414 102.491 94.2764 103.165C89.0446 104.357 86.941 109.367 88.6394 116.848C90.3777 124.504 94.9335 128.274 100.34 127.044C104.351 126.131 106.691 123.24 106.273 119.784L106.2 119.189L103.786 119.738C101.025 120.366 98.8922 119.321 98.2908 116.672C97.6896 114.023 99.1325 112.164 101.923 111.529L110.033 109.683C113.957 108.789 116.724 110.609 117.662 114.743C119.929 124.728 114.755 133.988 102.256 136.833C88.9431 139.863 79.2878 133.825 76.1221 119.881C72.996 106.111 79.0767 96.3999 92.0121 93.4559Z" fill="#1C98D5"/>
<path fill-rule="evenodd" clip-rule="evenodd" d="M110.142 30C113.805 30.0001 116.825 32.748 117.263 36.2973C132.323 41.3732 143.17 55.6265 143.17 72.4166V73.2958C147.607 76.651 148.635 82.2294 147.665 86.6974L134.601 146.866C134.432 147.645 134.091 148.981 133.23 150.316C130.295 154.866 121.342 163 96.4993 163C71.6563 163 62.7036 154.866 59.7684 150.316C58.9071 148.981 58.5669 147.645 58.3975 146.866L45.3352 86.6974C44.4803 82.7592 45.1776 77.9589 48.3931 74.5777V72.4166C48.3931 55.0714 59.9692 40.4347 75.8074 35.8254C76.4438 32.5072 79.3585 30 82.8582 30H110.142ZM96.4993 75.2925C73.3058 75.292 61.7151 79.7523 56.89 82.3844C56.765 82.4527 56.6745 82.5351 56.5907 82.7641C56.4864 83.0498 56.4111 83.5692 56.56 84.255L69.6009 144.323C70.6288 145.637 76.314 151.497 96.4993 151.497C116.68 151.497 122.366 145.639 123.396 144.323L136.439 84.255C136.587 83.5694 136.512 83.0514 136.408 82.7656C136.324 82.5362 136.234 82.4527 136.108 82.3844C134.269 81.3812 131.447 80.1137 127.374 78.9276V98.2976C127.373 100.282 125.767 101.891 123.785 101.891C121.802 101.891 120.194 100.282 120.194 98.2976V89.6639C119.593 90.1165 118.85 90.3893 118.04 90.3894C116.057 90.3894 114.449 88.7795 114.449 86.7943V76.3392C113.083 76.1652 111.648 76.0063 110.142 75.8704V81.0426C110.142 83.0278 108.534 84.6378 106.551 84.6378C104.569 84.6376 102.962 83.0277 102.962 81.0426V75.4139C100.915 75.3348 98.7625 75.2925 96.4993 75.2925ZM77.0738 41.4495C64.2633 45.3319 54.8158 56.9631 54.1729 70.898C61.6956 67.461 74.8127 63.7903 96.4993 63.7907C116.834 63.7911 129.633 67.0198 137.352 70.2555C136.48 57.0219 127.664 45.9633 115.631 41.8184C114.314 43.3826 112.345 44.3776 110.142 44.3776H82.8582C80.4855 44.3776 78.3811 43.2257 77.0738 41.4495Z" fill="#1C98D5"/>
</g>
<defs>
<radialGradient id="paint0_radial_405_13" cx="0" cy="0" r="1" gradientUnits="userSpaceOnUse" gradientTransform="translate(96 50.5) rotate(90) scale(146.5)">
<stop stop-color="#002C58"/>
<stop offset="1" stop-color="#141414"/>
</radialGradient>
<clipPath id="clip0_405_13">
<rect width="192" height="192" fill="white"/>
</clipPath>
</defs>
</svg>
